# xmcd
#
# Track frame offsets:
#	150
#	17583
#	39740
#	59385
#	82253
#	106615
#	127413
#	147218
#	172655
#
# Disc length: 2588 seconds
#
# Revision: 5
# Processed by: cddbd v1.5.2PL0 Copyright (c) Steve Scherf et al.
# Submitted via: EasyCDDAExtractor 15.3.0.1
#
DISCID=750a1a09
DTITLE=Celia Cruz - Irrepetible
DYEAR=1994
DGENRE=Latin
TTITLE0=Que Le Den Candela
TTITLE1=Bembelequa
TTITLE2=Limon Y Menta
TTITLE3=Mario Ague
TTITLE4=Drume Negrita
TTITLE5=Caballero Y Dama
TTITLE6=Enamorada De Ti
TTITLE7=La Guagua
TTITLE8=Cuando Cuba Se Acabe De Liberar
EXTD=YEAR: 1994
EXTT0=
EXTT1=
EXTT2=
EXTT3=
EXTT4=
EXTT5=
EXTT6=
EXTT7=
EXTT8=
PLAYORDER=
